# Blender 4.0.2
# www.blender.org
mtllib ShedCorner.mtl
o Cube
v -15.950804 0.004657 -11.584941
v -15.950804 16.111174 -11.584944
v -3.867026 0.004658 -11.584941
v -3.867026 16.111172 -11.584944
v -15.950804 8.057915 -11.584942
v -3.867026 8.057915 -11.584942
v -15.950804 0.004660 -3.236190
v -15.950804 16.111174 -3.236193
v -3.867027 18.766422 -3.236193
v -15.950804 8.057917 -3.236192
v -0.006267 16.111172 -11.584944
v -0.006267 8.057915 -11.584942
v -0.006267 18.766422 -3.236193
v -15.950804 16.111174 -0.010315
v -3.867027 18.766422 -0.010315
v -15.950804 8.057917 -0.010315
v -0.006267 18.766422 -0.010315
v -14.994131 0.004657 -10.899609
v -14.994131 15.627977 -10.899611
v -3.867026 0.004658 -10.899609
v -3.867026 15.627977 -10.899611
v -14.994131 8.057915 -10.899610
v -3.867026 8.057915 -10.899610
v -14.994131 0.004660 -3.236190
v -14.994131 15.627978 -3.236193
v -3.867027 15.627977 -3.236193
v -14.994131 8.057917 -3.236192
v -0.006267 15.627977 -10.899611
v -0.006267 8.057915 -10.899610
v -0.006267 15.627977 -3.236193
v -14.994131 15.627979 -0.010315
v -3.867027 15.627978 -0.010315
v -14.994131 8.057917 -0.010315
v -0.006267 15.627978 -0.010315
v -3.867027 0.004659 -3.236190
v -14.994131 0.004661 -0.008444
v -3.867027 0.004660 -0.008444
v -0.016434 0.004660 -0.008444
v -0.016434 0.004659 -3.296279
v -3.867027 18.766420 -7.410568
v -0.006267 18.766420 -7.410568
v -14.994131 15.627978 -7.067902
v -14.994131 8.057916 -7.067901
v -3.867027 15.627977 -7.067902
v -0.006267 15.627977 -7.067902
v -0.016434 0.004659 -7.165593
v -0.016434 0.004658 -10.758043
v -14.994131 0.004659 -7.105505
v -3.867026 0.004659 -7.105505
v -13.680894 18.766422 -3.236193
v -13.680894 18.766422 -0.010315
v -13.680894 18.766420 -7.410568
v -10.409604 18.766422 -3.236193
v -7.138315 18.766422 -3.236193
v -10.409604 18.766422 -0.010315
v -7.138315 18.766422 -0.010315
v -10.409604 18.766420 -7.410568
v -7.138315 18.766420 -7.410568
v -7.894953 0.004658 -11.584941
v -11.922878 0.004657 -11.584941
v -11.922878 16.111174 -11.584944
v -7.894953 16.111174 -11.584944
v -11.922878 8.057915 -11.584942
v -7.894953 8.057915 -11.584942
v -15.950804 5.082286 -11.584942
v -3.867026 5.082286 -11.584942
v -15.950804 5.082288 -3.236191
v -14.994131 5.083111 -10.899610
v -3.867026 5.083111 -10.899610
v -14.994131 5.083113 -3.236191
v -14.994131 5.083112 -7.081795
v -11.922878 5.082286 -11.584942
v -7.894953 5.082286 -11.584942
v -15.950804 10.395779 -11.584943
v -3.867026 10.316908 -11.584943
v -15.950804 10.395781 -3.236192
v -0.006267 10.316908 -11.584943
v -15.950804 10.395781 -0.010315
v -14.994131 10.260240 -10.899611
v -3.867026 10.260240 -10.899611
v -14.994131 10.260242 -3.236192
v -0.006267 10.260240 -10.899611
v -14.994131 10.260242 -0.010315
v -14.994131 10.260241 -7.067902
v -11.922878 10.395779 -11.584943
v -7.894953 10.316908 -11.584943
v -11.922878 8.057915 -10.889388
v -7.894953 8.057915 -10.889388
v -11.927138 10.288574 -10.894500
v -11.905087 5.082699 -10.894499
v -7.885345 5.082699 -10.894499
v -7.894970 10.288574 -10.894500
v -7.923360 12.429026 -10.896549
v -12.005026 12.541023 -10.896656
v -10.102115 8.201142 -11.298105
v -10.102115 7.562366 -11.298105
v -10.102115 8.201142 -11.123645
v -10.102115 7.562366 -11.123645
v -9.463339 7.562366 -11.123645
v -9.463339 8.201142 -11.123645
v -9.463339 7.562366 -11.298105
v -9.463339 8.201142 -11.298105
v -12.371799 7.562366 -11.123645
v -12.371799 8.201142 -11.123645
v -12.371799 8.201142 -11.298105
v -12.371799 7.562366 -11.298105
v -7.193654 7.562366 -11.298105
v -7.193654 8.201142 -11.298105
v -7.193654 8.201142 -11.123645
v -7.193654 7.562366 -11.123645
v -10.102115 4.935567 -11.298105
v -9.463339 4.935567 -11.298105
v -9.463339 4.935567 -11.123645
v -10.102115 4.935567 -11.123645
v -9.463339 10.827940 -11.298106
v -10.102115 10.827940 -11.298106
v -10.102115 10.827940 -11.123646
v -9.463339 10.827940 -11.123646
v -7.981661 0.004660 -3.236190
v -7.940568 0.004659 -7.105505
v -8.014282 0.004660 -0.008444
v -7.900307 0.004658 -10.899609
v -11.962505 0.004660 -3.236190
v -11.942373 0.004659 -7.105505
v -11.924755 0.004657 -10.899609
v -11.978252 0.004660 -0.008444
vn -0.7601 0.6498 -0.0000
vn 1.0000 -0.0000 -0.0000
vn -0.0000 -0.0000 -1.0000
vn -1.0000 -0.0000 -0.0000
vn -0.0000 1.0000 -0.0000
vn -0.0000 0.8438 -0.5367
vn -0.0019 0.0007 1.0000
vn -0.0012 0.0008 1.0000
vn -0.0005 0.0007 1.0000
vn -0.0006 0.0006 1.0000
vn -0.0000 -1.0000 -0.0000
vn 0.0007 0.0004 1.0000
vn -0.0000 -0.0000 1.0000
vn 0.0003 0.0003 1.0000
vn -0.0000 1.0000 -0.0006
vn -0.0003 -0.0004 1.0000
vn -0.0000 -0.0007 1.0000
vn 0.0008 -0.0008 1.0000
vn -0.0011 -0.0008 1.0000
vn -0.0097 -0.9952 -0.0977
vn 0.0013 0.0001 1.0000
vn 1.0000 0.0009 0.0031
vn 0.9999 0.0030 -0.0128
vn -1.0000 -0.0008 0.0035
vn -1.0000 -0.0016 0.0069
vn 0.0019 0.0001 1.0000
vn 0.0013 -0.0007 1.0000
vn 0.0009 0.0008 1.0000
vn -0.0025 0.0001 1.0000
vn -0.0012 -0.0010 1.0000
vn 0.0003 0.0007 1.0000
vn -0.0005 -0.0004 1.0000
vn 0.0006 -0.0005 1.0000
vt 0.674614 0.845884
vt 0.748622 0.757445
vt 0.748622 0.934323
vt 0.674614 0.934323
vt 0.522048 0.260244
vt 0.512281 0.372721
vt 0.429868 0.366761
vt 0.437846 0.256450
vt 0.250038 0.550756
vt 0.383164 0.558477
vt 0.383309 0.641840
vt 0.256118 0.647049
vt 0.806209 0.134909
vt 0.806209 0.005472
vt 0.995284 0.005472
vt 0.995284 0.134909
vt 0.384901 0.845884
vt 0.466696 0.845884
vt 0.466696 0.934323
vt 0.384901 0.934323
vt 0.637368 0.741070
vt 0.722704 0.741070
vt 0.605308 0.845884
vt 0.736604 0.134909
vt 0.736604 0.005472
vt 0.386734 0.725230
vt 0.261582 0.730369
vt 0.748622 0.999437
vt 0.674614 0.999438
vt 0.466696 0.999438
vt 0.384901 0.999438
vt 0.523487 0.141484
vt 0.438691 0.145202
vt 0.429868 0.030385
vt 0.511829 0.024087
vt 0.643643 0.723198
vt 0.645549 0.657605
vt 0.694417 0.660741
vt 0.757831 0.727939
vt 0.608908 0.267002
vt 0.525675 0.192273
vt 0.626834 0.191975
vt 0.318410 0.853144
vt 0.318410 0.934323
vt 0.236615 0.934323
vt 0.236615 0.853144
vt 0.000875 0.934323
vt 0.000875 0.853144
vt 0.676149 0.111970
vt 0.614088 0.133112
vt 0.592113 0.015119
vt 0.654625 0.002794
vt 0.653588 0.473888
vt 0.674342 0.394820
vt 0.780955 0.406962
vt 0.771279 0.488417
vt 0.236615 0.999438
vt 0.000875 0.999438
vt 0.318410 0.999438
vt 0.018658 0.386242
vt 0.022385 0.478348
vt 0.007259 0.478697
vt 0.003896 0.409027
vt 0.519960 0.466035
vt 0.586613 0.447096
vt 0.595876 0.461045
vt 0.523096 0.481423
vt 0.806209 0.370238
vt 0.995284 0.370238
vt 0.979763 0.391904
vt 0.893838 0.391904
vt 0.806209 0.391904
vt 0.705719 0.165687
vt 0.647332 0.206295
vt 0.693079 0.147513
vt 0.630371 0.271115
vt 0.617071 0.383271
vt 0.595940 0.380765
vt 0.632547 0.384591
vt 0.638463 0.396260
vt 0.675744 0.381624
vt 0.792156 0.394246
vt 0.006921 0.011629
vt 0.087991 0.011629
vt 0.088414 0.094559
vt 0.006921 0.094559
vt 0.306027 0.094560
vt 0.306027 0.198570
vt 0.196527 0.198570
vt 0.195422 0.094559
vt 0.328647 0.757445
vt 0.318410 0.771965
vt 0.236615 0.771965
vt 0.000875 0.771965
vt 0.409535 0.090754
vt 0.409535 0.194765
vt 0.384901 0.741070
vt 0.466696 0.741070
vt 0.306027 0.011629
vt 0.409535 0.007823
vt 0.806209 0.255245
vt 0.806209 0.187855
vt 0.995284 0.187855
vt 0.995284 0.255245
vt 0.135423 0.557280
vt 0.202693 0.566869
vt 0.207917 0.651550
vt 0.134216 0.652721
vt 0.605308 0.934323
vt 0.605308 0.999438
vt 0.006921 0.198570
vt 0.088955 0.198570
vt 0.089429 0.300559
vt 0.006921 0.300559
vt 0.306027 0.300559
vt 0.409535 0.296754
vt 0.536002 0.845884
vt 0.536002 0.934323
vt 0.536002 0.999438
vt 0.136315 0.378841
vt 0.200941 0.371305
vt 0.201428 0.458036
vt 0.140486 0.475635
vt 0.150941 0.485472
vt 0.150821 0.545798
vt 0.552032 0.741070
vt 0.260616 0.371305
vt 0.394127 0.382669
vt 0.386714 0.473048
vt 0.256474 0.468581
vt 0.022640 0.564347
vt 0.022731 0.650829
vt 0.409780 0.479724
vt 0.411628 0.494595
vt 0.425459 0.663420
vt 0.420525 0.579052
vt 0.530937 0.570194
vt 0.533545 0.657740
vt 0.440022 0.192580
vt 0.239238 0.541368
vt 0.240435 0.479152
vt 0.213687 0.733526
vt 0.736604 0.187855
vt 0.201726 0.475169
vt 0.201361 0.549761
vt 0.595423 0.566993
vt 0.647582 0.568022
vt 0.597089 0.722642
vt 0.597031 0.656947
vt 0.535101 0.723154
vt 0.695806 0.570978
vt 0.428351 0.727939
vt 0.826856 0.801747
vt 0.842430 0.784893
vt 0.859284 0.800468
vt 0.843710 0.817322
vt 0.881225 0.909527
vt 0.901919 0.891308
vt 0.918292 0.913339
vt 0.897598 0.931557
vt 0.972295 0.977695
vt 0.960756 0.989144
vt 0.926990 0.913715
vt 0.976093 0.974565
vt 0.766971 0.746407
vt 0.782546 0.729554
vt 0.956623 0.993701
vt 0.897327 0.939940
vt 0.919169 0.855807
vt 0.903594 0.872661
vt 0.838762 0.833722
vt 0.842894 0.829164
vt 0.902190 0.882925
vt 0.827223 0.845170
vt 0.872527 0.909150
vt 0.823424 0.848301
vt 0.779663 0.886629
vt 0.762809 0.871054
vt 0.810833 0.979842
vt 0.806430 0.975452
vt 0.822044 0.992043
vt 0.825106 0.995926
vt 0.906477 0.715586
vt 0.923331 0.731161
vt 0.988685 0.843023
vt 0.993088 0.847413
vt 0.977474 0.830822
vt 0.974411 0.826940
vt 0.007978 0.564312
vt 0.008029 0.650835
vt 0.197609 0.300559
vt 0.194546 0.011629
s 1
f 52/1/1 2/2/1 8/3/1 50/4/1
f 71/5/2 48/6/2 18/7/2 68/8/2
f 86/9/3 62/10/3 4/11/3 75/12/3
f 76/13/4 8/14/4 2/15/4 74/16/4
f 41/17/5 40/18/5 9/19/5 13/20/5
f 61/21/6 2/22/6 52/1/6 57/23/6
f 78/24/4 14/25/4 8/14/4 76/13/4
f 75/12/3 4/11/3 11/26/3 77/27/3
f 50/4/1 8/3/1 14/28/1 51/29/1
f 13/20/5 9/19/5 15/30/5 17/31/5
f 84/32/2 79/33/2 19/34/2 42/35/2
f 79/36/7 89/37/8 94/38/9 19/39/10
f 70/40/2 71/5/2 43/41/2 27/42/2
f 45/43/11 30/44/11 26/45/11 44/46/11
f 44/46/11 26/45/11 25/47/11 42/48/11
f 83/49/2 81/50/2 25/51/2 31/52/2
f 80/53/12 82/54/13 28/55/13 21/56/14
f 26/45/11 32/57/11 31/58/11 25/47/11
f 30/44/11 34/59/11 32/57/11 26/45/11
f 1/60/11 60/61/11 125/62/11 18/63/11
f 66/64/2 6/65/2 23/66/2 69/67/2
f 7/68/11 1/69/11 18/70/11 48/71/11 24/72/11
f 16/73/11 10/74/11 27/42/11 33/75/11
f 67/76/13 7/77/13 24/78/13 70/40/13
f 6/65/11 12/79/11 29/80/11 23/66/11
f 41/17/2 13/20/2 30/44/2 45/43/2
f 77/81/2 11/82/2 28/55/2 82/54/2
f 13/20/2 17/31/2 34/59/2 30/44/2
f 36/83/5 126/84/5 123/85/5 24/86/5
f 35/87/5 49/88/5 120/89/5 119/90/5
f 11/91/2 41/17/2 45/43/2 28/92/2
f 21/93/11 44/46/11 42/48/11 19/94/11
f 28/92/11 45/43/11 44/46/11 21/93/11
f 81/50/2 84/32/2 42/35/2 25/51/2
f 49/88/5 35/87/5 39/95/5 46/96/5
f 11/97/6 4/98/6 40/18/6 41/17/6
f 35/87/5 37/99/5 38/100/5 39/95/5
f 67/101/4 10/102/4 5/103/4 65/104/4
f 73/105/3 64/106/3 6/107/3 66/108/3
f 53/109/5 50/4/5 51/29/5 55/110/5
f 57/23/5 52/1/5 50/4/5 53/109/5
f 48/111/5 124/112/5 125/113/5 18/114/5
f 20/115/5 49/88/5 46/96/5 47/116/5
f 40/18/5 58/117/5 54/118/5 9/19/5
f 58/117/5 57/23/5 53/109/5 54/118/5
f 9/19/5 54/118/5 56/119/5 15/30/5
f 54/118/5 53/109/5 55/110/5 56/119/5
f 65/120/3 5/121/3 63/122/3 72/123/3
f 73/105/15 72/123/15 90/124/15 91/125/15
f 4/98/6 62/126/6 58/117/6 40/18/6
f 62/126/6 61/21/6 57/23/6 58/117/6
f 74/127/3 2/128/3 61/129/3 85/130/3
f 85/130/3 61/129/3 62/10/3 86/9/3
f 60/61/3 72/123/3 73/105/3 59/131/3
f 1/60/3 65/120/3 72/123/3 60/61/3
f 59/131/3 73/105/3 66/108/3 3/132/3
f 7/68/4 67/101/4 65/104/4 1/69/4
f 10/74/13 67/76/13 70/40/13 27/42/13
f 3/133/2 66/64/2 69/67/2 20/134/2
f 24/78/2 48/6/2 71/5/2 70/40/2
f 125/135/16 122/136/17 91/137/18 90/138/19
f 43/41/2 71/5/2 68/8/2 22/139/2
f 85/130/20 86/9/20 92/140/20 89/141/20
f 5/121/3 74/127/3 85/130/3 63/122/3
f 27/42/2 43/41/2 84/32/2 81/50/2
f 12/79/2 77/81/2 82/54/2 29/80/2
f 23/66/21 29/80/13 82/54/13 80/53/12
f 33/75/2 27/42/2 81/50/2 83/49/2
f 43/41/2 22/139/2 79/33/2 84/32/2
f 6/107/3 75/12/3 77/27/3 12/142/3
f 16/143/4 78/24/4 76/13/4 10/102/4
f 10/102/4 76/13/4 74/16/4 5/103/4
f 64/106/3 86/9/3 75/12/3 6/107/3
f 63/122/22 85/130/22 89/141/22 87/144/22
f 72/123/23 63/122/23 87/144/23 90/124/23
f 86/9/4 64/106/24 88/145/24 92/140/4
f 64/106/24 73/105/25 91/125/25 88/145/24
f 23/66/21 88/146/26 91/137/18 69/67/27
f 80/53/12 92/147/28 88/146/26 23/66/21
f 89/37/8 79/36/7 22/148/29 87/149/29
f 87/149/29 22/148/29 68/150/30 90/138/19
f 19/39/10 94/38/9 93/151/31 21/56/14
f 21/56/14 93/151/31 92/147/28 80/53/12
f 92/147/28 93/151/31 94/38/9 89/37/8
f 125/135/16 90/138/19 68/150/30 18/152/32
f 96/153/3 95/154/3 102/155/3 101/156/3
f 99/157/13 100/158/13 97/159/13 98/160/13
f 97/159/13 104/161/13 103/162/13 98/160/13
f 95/163/5 105/164/5 104/161/5 97/159/5
f 96/153/3 106/165/3 105/166/3 95/154/3
f 98/160/11 103/162/11 106/167/11 96/168/11
f 102/155/3 108/169/3 107/170/3 101/156/3
f 100/158/5 109/171/5 108/172/5 102/173/5
f 99/157/13 110/174/13 109/171/13 100/158/13
f 101/175/11 107/176/11 110/174/11 99/157/11
f 101/156/3 112/177/3 111/178/3 96/153/3
f 99/157/2 113/179/2 112/180/2 101/175/2
f 98/160/13 114/181/13 113/179/13 99/157/13
f 96/168/4 111/182/4 114/181/4 98/160/4
f 95/154/3 116/183/3 115/184/3 102/155/3
f 97/159/4 117/185/4 116/186/4 95/163/4
f 100/158/13 118/187/13 117/185/13 97/159/13
f 102/173/2 115/188/2 118/187/2 100/158/2
f 122/136/17 20/134/33 69/67/27 91/137/18
f 119/90/5 120/89/5 124/112/5 123/85/5
f 122/189/11 59/131/11 3/132/11 20/190/11
f 122/191/5 120/89/5 49/88/5 20/115/5
f 119/90/5 121/192/5 37/99/5 35/87/5
f 125/62/11 60/61/11 59/131/11 122/189/11
f 125/113/5 124/112/5 120/89/5 122/191/5
f 123/85/5 126/84/5 121/192/5 119/90/5
f 123/85/5 124/112/5 48/111/5 24/86/5
