# Blender 4.1.0
# www.blender.org
mtllib Silo_Wall.mtl
o Silo_Wall
v 20.098152 10.197474 -3.997772
v 20.491899 10.197475 -0.000001
v 20.098152 10.197476 3.997770
v 14.489960 10.197472 -14.489962
v 17.038391 10.197473 -11.384690
v 18.932047 10.197474 -7.841912
v 18.932047 10.197477 7.841910
v 17.038391 10.197477 11.384688
v 14.489962 10.197479 14.489960
v 13.604876 10.197472 -13.604878
v 15.997643 10.197473 -10.689284
v 17.775629 10.197474 -7.362908
v 18.870506 10.197474 -3.753578
v 18.870506 10.197476 3.753576
v 17.775629 10.197477 7.362906
v 15.997643 10.197477 10.689282
v 13.604877 10.197479 13.604876
v 19.240200 10.197475 -0.000001
v 14.489960 19.913960 -14.489964
v 17.038391 19.913960 -11.384693
v 18.932047 19.913960 -7.841914
v 20.098152 19.913961 -3.997775
v 20.491899 19.913963 -0.000003
v 20.098152 19.913963 3.997768
v 18.932047 19.913965 7.841907
v 17.038391 19.913965 11.384686
v 14.489962 19.913965 14.489957
v 13.604876 19.930006 -13.604881
v 15.997643 19.930006 -10.689287
v 17.775629 19.930008 -7.362911
v 18.870506 19.930008 -3.753581
v 18.870506 19.930010 3.753574
v 17.775629 19.930012 7.362904
v 15.997643 19.930012 10.689281
v 13.604877 19.930012 13.604873
v 19.304256 19.930008 -0.000003
vn 0.8315 -0.0000 -0.5556
vn 0.9239 -0.0000 -0.3827
vn 0.9808 -0.0000 -0.1951
vn 0.8315 -0.0000 0.5556
vn 0.7730 -0.0000 0.6344
vn -0.8315 -0.0000 0.5556
vn -0.7730 -0.0000 0.6344
vn 0.9239 -0.0000 0.3827
vn 1.0000 -0.0000 -0.0000
vn -0.0000 -1.0000 -0.0000
vn -0.9239 -0.0000 -0.3827
vn -0.9808 -0.0000 -0.1951
vn -0.8315 -0.0000 -0.5556
vn -0.7730 -0.0000 -0.6344
vn -1.0000 0.0015 -0.0000
vn -0.9795 0.0025 -0.2014
vn -1.0000 0.0066 -0.0000
vn -0.9239 -0.0000 0.3827
vn -0.9795 0.0025 0.2014
vn -0.9808 -0.0000 0.1951
vn 0.9808 -0.0000 0.1951
vn 0.0126 0.9999 -0.0026
vn 0.0118 0.9999 -0.0049
vn 0.0107 0.9999 -0.0071
vn 0.0100 0.9999 -0.0082
vn 0.0100 0.9999 0.0082
vn 0.0107 0.9999 0.0071
vn 0.0118 0.9999 0.0049
vn 0.0125 0.9999 0.0026
vn -0.7071 -0.0000 -0.7071
vn 0.0134 0.9999 -0.0000
vn 0.0126 0.9999 0.0026
vn 0.0135 0.9999 -0.0000
vn 0.7730 -0.0000 -0.6344
vn -0.7071 -0.0000 0.7071
vt 0.544879 0.199858
vt 0.608883 0.325821
vt 0.556272 0.331334
vt 0.601384 0.195915
vt 0.661577 0.322865
vt 0.882055 0.201955
vt 0.922887 0.340015
vt 0.869276 0.331824
vt 0.373597 0.959003
vt 0.275649 0.985566
vt 0.279029 0.950691
vt 0.825863 0.197007
vt 0.816906 0.326884
vt 0.713537 0.193112
vt 0.657630 0.193804
vt 0.765004 0.323895
vt 0.713497 0.338954
vt 0.713599 0.322302
vt 0.815579 0.344016
vt 0.764214 0.340215
vt 0.662220 0.339757
vt 0.610250 0.343117
vt 0.558520 0.347932
vt 0.918402 0.357047
vt 0.867175 0.348402
vt 0.502692 0.340042
vt 0.507335 0.357047
vt 0.377584 0.767103
vt 0.283066 0.808720
vt 0.281441 0.773204
vt 0.374399 0.729375
vt 0.278851 0.737727
vt 0.368990 0.693289
vt 0.275649 0.701554
vt 0.283689 0.844298
vt 0.379280 0.805358
vt 0.379890 0.844229
vt 0.377084 0.921052
vt 0.281495 0.915452
vt 0.379509 0.882857
vt 0.282994 0.879886
vt 0.769550 0.194163
vt 0.391495 0.883208
vt 0.389512 0.922011
vt 0.385524 0.960653
vt 0.367280 0.995370
vt 0.386281 0.727818
vt 0.389743 0.766179
vt 0.485351 0.341913
vt 0.488164 0.205429
vt 0.391564 0.804942
vt 0.391870 0.844228
vt 0.936762 0.207692
vt 0.939933 0.341803
vt 0.378844 0.998600
vt 0.380185 0.690401
vt 0.470799 0.207078
vt 0.953831 0.209261
s 1
usemtl Silo
f 20/1/1 6/2/2 5/3/1
f 21/4/2 1/5/3 6/2/2
f 26/6/4 9/7/5 8/8/4
f 29/9/6 10/10/7 11/11/6
f 25/12/8 8/8/4 7/13/8
f 23/14/9 1/5/3 22/15/3
f 3/16/10 18/17/10 2/18/10
f 3/16/10 15/19/10 14/20/10
f 2/18/10 13/21/10 1/5/10
f 1/5/10 12/22/10 6/2/10
f 5/3/10 12/22/10 11/23/10
f 8/8/10 17/24/10 16/25/10
f 4/26/10 11/23/10 10/27/10
f 8/8/10 15/19/10 7/13/10
f 33/28/11 14/29/12 15/30/11
f 34/31/13 15/30/11 16/32/13
f 35/33/14 16/32/13 17/34/14
f 18/35/15 32/36/16 36/37/17
f 30/38/18 11/11/6 12/39/18
f 31/40/19 12/39/18 13/41/20
f 25/12/8 3/16/21 24/42/21
f 24/42/21 2/18/9 23/14/9
f 22/43/22 30/38/23 31/40/22
f 21/44/23 29/9/24 30/38/23
f 20/45/24 28/46/25 29/9/24
f 35/33/26 26/47/27 34/31/27
f 26/47/27 33/28/28 34/31/27
f 25/48/28 32/36/29 33/28/28
f 18/35/15 31/40/19 13/41/20
f 10/49/30 19/50/30 4/26/30
f 36/37/31 24/51/32 23/52/33
f 36/37/31 22/43/22 31/40/22
f 19/50/34 5/3/1 4/26/34
f 27/53/35 17/54/35 9/7/35
f 20/1/1 21/4/2 6/2/2
f 21/4/2 22/15/3 1/5/3
f 26/6/4 27/53/5 9/7/5
f 29/9/6 28/46/7 10/10/7
f 25/12/8 26/6/4 8/8/4
f 23/14/9 2/18/9 1/5/3
f 3/16/10 14/20/10 18/17/10
f 3/16/10 7/13/10 15/19/10
f 2/18/10 18/17/10 13/21/10
f 1/5/10 13/21/10 12/22/10
f 5/3/10 6/2/10 12/22/10
f 8/8/10 9/7/10 17/24/10
f 4/26/10 5/3/10 11/23/10
f 8/8/10 16/25/10 15/19/10
f 33/28/11 32/36/16 14/29/12
f 34/31/13 33/28/11 15/30/11
f 35/33/14 34/31/13 16/32/13
f 18/35/15 14/29/12 32/36/16
f 30/38/18 29/9/6 11/11/6
f 31/40/19 30/38/18 12/39/18
f 25/12/8 7/13/8 3/16/21
f 24/42/21 3/16/21 2/18/9
f 22/43/22 21/44/23 30/38/23
f 21/44/23 20/45/24 29/9/24
f 20/45/24 19/55/25 28/46/25
f 35/33/26 27/56/26 26/47/27
f 26/47/27 25/48/28 33/28/28
f 25/48/28 24/51/32 32/36/29
f 18/35/15 36/37/17 31/40/19
f 10/49/30 28/57/30 19/50/30
f 36/37/31 32/36/29 24/51/32
f 36/37/31 23/52/33 22/43/22
f 19/50/34 20/1/1 5/3/1
f 27/53/35 35/58/35 17/54/35
