# Blender 4.1.0
# www.blender.org
mtllib Silo_Top.mtl
o Silo_Top
v 14.548670 57.628494 -14.516920
v 17.097101 57.628494 -11.411648
v 18.990757 57.628494 -7.868870
v 20.156862 57.628494 -4.024730
v 20.550610 57.628494 -0.026959
v 20.156862 57.628498 3.970813
v 18.990757 57.628498 7.814952
v 17.097101 57.628498 11.357731
v 14.548672 57.628498 14.463001
v 13.211255 61.979336 -13.179507
v 15.524469 61.979336 -10.360852
v 17.243341 61.979340 -7.145068
v 18.301817 61.979340 -3.655740
v 18.659220 61.979340 -0.026960
v 18.301817 61.979340 3.601820
v 17.243341 61.979340 7.091148
v 15.524469 61.979343 10.306930
v 13.211257 61.979343 13.125587
v 10.299582 65.277512 -10.267830
v 12.100701 65.277512 -8.073161
v 13.439054 65.277512 -5.569281
v 14.263206 65.277519 -2.852410
v 14.541489 65.277519 -0.026960
v 14.263206 65.277519 2.798490
v 13.439054 65.277519 5.515359
v 12.100701 65.277512 8.019240
v 10.299582 65.277519 10.213913
v 6.327526 67.932289 -6.295775
v 7.430058 67.932289 -4.952336
v 8.249312 67.932289 -3.419619
v 8.753807 67.932289 -1.756523
v 8.924154 67.932289 -0.026960
v 8.753807 67.932289 1.702603
v 8.249312 67.932289 3.365699
v 7.430058 67.932289 4.898417
v 6.327527 67.932297 6.241857
v 14.548670 47.158112 -14.516917
v 17.097101 47.158112 -11.411645
v 18.990757 47.158115 -7.868867
v 20.156862 47.158115 -4.024727
v 20.550610 47.158115 -0.026956
v 20.156862 47.158119 3.970815
v 18.990757 47.158119 7.814955
v 17.097101 47.158119 11.357734
v 14.548672 47.158119 14.463004
v 0.058710 69.398880 -0.026962
v 13.439005 57.260601 -13.606241
v 15.898331 57.257210 -10.610655
v 17.658752 57.257214 -7.317135
v 18.742815 57.257214 -3.743458
v 19.108860 57.257217 -0.026959
v 18.742815 57.257217 3.689541
v 17.658752 57.257217 7.263218
v 15.898331 57.257217 10.556738
v 13.439007 57.260605 13.552322
v 12.330344 60.914913 -12.456560
v 14.576196 60.908920 -9.727234
v 16.189674 60.908920 -6.708624
v 17.183250 60.908924 -3.433243
v 17.518740 60.908924 -0.026960
v 17.183250 60.908924 3.379323
v 16.189674 60.908928 6.654705
v 14.576196 60.908928 9.673315
v 12.330346 60.914917 12.402643
v 9.749523 63.862339 -9.816408
v 11.510545 63.859097 -7.678833
v 12.783306 63.859100 -5.297660
v 13.567068 63.859100 -2.713940
v 13.831713 63.859100 -0.026960
v 13.567068 63.859100 2.660020
v 12.783306 63.859100 5.243741
v 11.510545 63.859100 7.624910
v 9.749523 63.862347 9.762491
v 6.018374 66.366211 -6.042059
v 7.098897 66.365120 -4.731062
v 7.881348 66.365120 -3.267202
v 8.363178 66.365120 -1.678821
v 8.525872 66.365120 -0.026959
v 8.363178 66.365120 1.624903
v 7.881348 66.365120 3.213284
v 7.098897 66.365120 4.677144
v 6.018375 66.366211 5.988142
v 13.439838 47.158112 -13.606921
v 15.898643 47.158112 -10.610862
v 17.659100 47.158115 -7.317277
v 18.743185 47.158115 -3.743529
v 19.109236 47.158115 -0.026956
v 18.743185 47.158119 3.689617
v 17.659100 47.158119 7.263365
v 15.898643 47.158119 10.556951
v 13.439840 47.158119 13.553010
v -0.130798 67.793243 -0.026962
vn 0.7730 -0.0000 -0.6344
vn 0.8315 -0.0000 -0.5556
vn 0.9239 -0.0000 -0.3827
vn 0.9808 -0.0000 -0.1951
vn 1.0000 -0.0000 -0.0000
vn 0.9808 -0.0000 0.1951
vn 0.9239 -0.0000 0.3827
vn 0.8315 -0.0000 0.5556
vn 0.7730 -0.0000 0.6344
vn 0.8473 0.3987 0.3510
vn 0.6650 0.6003 0.4444
vn 0.7625 0.3987 0.5095
vn 0.8473 0.3987 -0.3510
vn 0.7844 0.6002 -0.1560
vn 0.8995 0.3987 -0.1789
vn 0.6193 0.5984 0.5083
vn 0.7095 0.3971 0.5822
vn 0.7998 0.6002 -0.0000
vn 0.9171 0.3987 -0.0000
vn 0.8995 0.3987 0.1789
vn 0.7844 0.6002 0.1560
vn 0.7095 0.3971 -0.5822
vn 0.6650 0.6003 -0.4444
vn 0.7625 0.3987 -0.5095
vn 0.7389 0.6002 0.3061
vn 0.7389 0.6002 -0.3061
vn 0.4449 0.8448 -0.2973
vn 0.4943 0.8448 -0.2048
vn 0.5248 0.8448 -0.1044
vn 0.5350 0.8448 -0.0000
vn 0.5248 0.8448 0.1044
vn 0.4943 0.8448 0.2048
vn 0.4449 0.8448 0.2973
vn 0.4150 0.8437 0.3406
vn 0.6193 0.5984 -0.5083
vn 0.3001 0.9520 0.0597
vn 0.2827 0.9520 0.1171
vn 0.2544 0.9520 0.1700
vn 0.2375 0.9516 0.1949
vn 0.4150 0.8437 -0.3406
vn 0.2544 0.9520 -0.1700
vn 0.2827 0.9520 -0.1171
vn 0.3001 0.9520 -0.0597
vn 0.3059 0.9520 -0.0000
vn 0.2375 0.9516 -0.1949
vn 0.1482 0.9890 -0.0000
vn -0.7730 -0.0001 0.6344
vn -0.8314 -0.0001 0.5557
vn -0.7729 -0.0001 0.6345
vn -0.9239 -0.0000 0.3827
vn -0.8315 -0.0000 0.5556
vn -0.9808 -0.0000 0.1951
vn -1.0000 -0.0000 -0.0000
vn -0.9808 -0.0000 -0.1951
vn -0.9239 -0.0000 -0.3827
vn -0.8315 -0.0000 -0.5556
vn -0.7730 -0.0001 -0.6344
vn -0.8314 -0.0001 -0.5556
vn -0.6647 -0.6006 -0.4443
vn -0.8471 -0.3992 -0.3509
vn -0.7623 -0.3994 -0.5094
vn -0.7841 -0.6007 0.1560
vn -0.8471 -0.3992 0.3509
vn -0.8992 -0.3992 0.1789
vn -0.6195 -0.5984 -0.5082
vn -0.7092 -0.3982 -0.5818
vn -0.7995 -0.6007 -0.0000
vn -0.9168 -0.3992 -0.0000
vn -0.7841 -0.6007 -0.1560
vn -0.8992 -0.3992 -0.1789
vn -0.7623 -0.3994 0.5094
vn -0.6195 -0.5984 0.5082
vn -0.7092 -0.3982 0.5818
vn -0.7386 -0.6007 -0.3059
vn -0.7386 -0.6007 0.3060
vn -0.4446 -0.8450 0.2971
vn -0.6647 -0.6006 0.4443
vn -0.4940 -0.8450 0.2046
vn -0.5347 -0.8450 -0.0000
vn -0.4940 -0.8450 -0.2046
vn -0.4446 -0.8450 -0.2971
vn -0.4150 -0.8438 -0.3404
vn -0.4150 -0.8438 0.3404
vn -0.5245 -0.8450 -0.1043
vn -0.3056 -0.9522 -0.0000
vn -0.2998 -0.9521 -0.0596
vn -0.2544 -0.9520 -0.1700
vn -0.2372 -0.9518 -0.1946
vn -0.2372 -0.9518 0.1946
vn -0.2825 -0.9521 0.1170
vn -0.5245 -0.8450 0.1043
vn -0.2998 -0.9521 0.0596
vn -0.2544 -0.9520 0.1700
vn -0.1480 -0.9890 -0.0000
vn -0.2825 -0.9521 -0.1170
vn -0.6405 0.0217 0.7677
vn -0.6650 0.0472 0.7453
vn -0.6386 0.0222 0.7692
vn -0.6405 0.0217 -0.7677
vn -0.6650 0.0472 -0.7453
vn -0.6687 0.0448 -0.7422
vn -0.6687 0.0448 0.7422
vn -0.6904 0.0410 0.7223
vn -0.6904 0.0410 -0.7223
vn -0.6921 0.0371 -0.7209
vn -0.6921 0.0371 0.7209
vn -0.7006 0.0277 0.7130
vn -0.7006 0.0277 -0.7130
vn -0.7018 0.0232 -0.7119
vn -0.6344 -0.0000 -0.7730
vn -0.6386 0.0222 -0.7692
vn -0.6344 -0.0000 0.7730
vn -0.0000 -1.0000 -0.0000
vn -0.6894 0.0742 -0.7205
vn -0.6873 0.0811 -0.7218
vn -0.6894 0.0742 0.7205
vn -0.7018 0.0232 0.7119
vn -0.7729 -0.0001 -0.6345
vn -0.6873 0.0811 0.7218
vt 0.650027 0.837481
vt 0.638814 0.765480
vt 0.667761 0.769491
vt 0.625962 0.830468
vt 0.611359 0.761656
vt 0.602556 0.825743
vt 0.583922 0.759076
vt 0.579571 0.823046
vt 0.556801 0.758355
vt 0.556797 0.822301
vt 0.529795 0.759369
vt 0.534065 0.823463
vt 0.502834 0.761955
vt 0.511212 0.826558
vt 0.475689 0.765634
vt 0.488008 0.831624
vt 0.446928 0.769182
vt 0.496056 0.858725
vt 0.577546 0.849593
vt 0.475133 0.866085
vt 0.464180 0.838631
vt 0.557225 0.848750
vt 0.536947 0.849878
vt 0.618642 0.857856
vt 0.516647 0.853107
vt 0.597948 0.852545
vt 0.607899 0.888490
vt 0.591120 0.883036
vt 0.574273 0.879803
vt 0.557428 0.878751
vt 0.540618 0.879970
vt 0.523840 0.883387
vt 0.507063 0.889064
vt 0.490068 0.897366
vt 0.639805 0.865429
vt 0.546422 0.918254
vt 0.535466 0.921043
vt 0.524928 0.925594
vt 0.515048 0.932073
vt 0.624959 0.896834
vt 0.590331 0.925398
vt 0.579749 0.920827
vt 0.568759 0.918088
vt 0.557584 0.917271
vt 0.600350 0.931961
vt 0.557715 0.979469
vt 0.669364 0.540410
vt 0.607632 0.574204
vt 0.602026 0.549584
vt 0.675288 0.591497
vt 0.672631 0.566461
vt 0.613563 0.619131
vt 0.611517 0.597099
vt 0.677015 0.641824
vt 0.677015 0.616654
vt 0.676118 0.666941
vt 0.614119 0.640788
vt 0.673878 0.692182
vt 0.612757 0.662444
vt 0.670448 0.717472
vt 0.609541 0.684417
vt 0.665982 0.743779
vt 0.604700 0.706941
vt 0.580580 0.699808
vt 0.590675 0.620513
vt 0.571841 0.721731
vt 0.597976 0.731484
vt 0.591248 0.640173
vt 0.589882 0.659838
vt 0.575546 0.558035
vt 0.586285 0.679559
vt 0.588061 0.600636
vt 0.554494 0.590425
vt 0.583218 0.580270
vt 0.559995 0.606920
vt 0.563759 0.639570
vt 0.558514 0.672078
vt 0.552298 0.688311
vt 0.543007 0.704699
vt 0.545977 0.573617
vt 0.562267 0.655840
vt 0.527119 0.638765
vt 0.526010 0.649372
vt 0.518279 0.669577
vt 0.511403 0.678848
vt 0.513086 0.598000
vt 0.523895 0.617636
vt 0.562992 0.623265
vt 0.526418 0.628116
vt 0.519548 0.607581
vt 0.469144 0.637550
vt 0.523078 0.659726
vt 0.464718 0.869323
vt 0.454633 0.841390
vt 0.650302 0.868476
vt 0.479305 0.902310
vt 0.635822 0.901711
vt 0.505282 0.939037
vt 0.610192 0.938873
vt 0.659578 0.840095
vt 0.437030 0.771682
vt 0.474402 0.755428
vt 0.501671 0.751740
vt 0.529137 0.749107
vt 0.556758 0.748043
vt 0.584519 0.748675
vt 0.612601 0.750959
vt 0.640281 0.755158
vt 0.669116 0.758820
vt 0.567193 0.986708
vt 0.677426 0.772027
vt 0.445761 0.758581
vt 0.548268 0.986708
s 1
usemtl Silo
f 1/1/1 38/2/2 37/3/1
f 2/4/2 39/5/3 38/2/2
f 3/6/3 40/7/4 39/5/3
f 4/8/4 41/9/5 40/7/4
f 5/10/5 42/11/6 41/9/5
f 6/12/6 43/13/7 42/11/6
f 7/14/7 44/15/8 43/13/7
f 8/16/8 45/17/9 44/15/8
f 7/14/10 17/18/11 8/16/12
f 3/6/13 13/19/14 4/8/15
f 8/16/12 18/20/16 9/21/17
f 4/8/15 14/22/18 5/10/19
f 6/12/20 14/22/18 15/23/21
f 1/1/22 11/24/23 2/4/24
f 6/12/20 16/25/25 7/14/10
f 2/4/24 12/26/26 3/6/13
f 12/26/26 20/27/27 21/28/28
f 13/19/14 21/28/28 22/29/29
f 14/22/18 22/29/29 23/30/30
f 15/23/21 23/30/30 24/31/31
f 15/23/21 25/32/32 16/25/25
f 16/25/25 26/33/33 17/18/11
f 18/20/16 26/33/33 27/34/34
f 10/35/35 20/27/27 11/24/23
f 23/30/30 33/36/36 24/31/31
f 24/31/31 34/37/37 25/32/32
f 25/32/32 35/38/38 26/33/33
f 26/33/33 36/39/39 27/34/34
f 19/40/40 29/41/41 20/27/27
f 21/28/28 29/41/41 30/42/42
f 22/29/29 30/42/42 31/43/43
f 22/29/29 32/44/44 23/30/30
f 29/41/41 28/45/45 46/46/46
f 30/42/42 29/41/41 46/46/46
f 31/43/43 30/42/42 46/46/46
f 32/44/44 31/43/43 46/46/46
f 33/36/36 32/44/44 46/46/46
f 34/37/37 33/36/36 46/46/46
f 35/38/38 34/37/37 46/46/46
f 36/39/39 35/38/38 46/46/46
f 83/47/47 48/48/48 47/49/49
f 85/50/50 48/48/48 84/51/51
f 85/50/50 50/52/52 49/53/50
f 87/54/53 50/52/52 86/55/52
f 88/56/54 51/57/53 87/54/53
f 89/58/55 52/59/54 88/56/54
f 90/60/56 53/61/55 89/58/55
f 91/62/57 54/63/58 90/60/56
f 63/64/59 53/61/60 54/63/61
f 59/65/62 49/53/63 50/52/64
f 64/66/65 54/63/61 55/67/66
f 60/68/67 50/52/64 51/57/68
f 61/69/69 51/57/68 52/59/70
f 48/48/71 56/70/72 47/49/73
f 62/71/74 52/59/70 53/61/60
f 58/72/75 48/48/71 49/53/63
f 58/72/75 66/73/76 57/74/77
f 59/65/62 67/75/78 58/72/75
f 69/76/79 59/65/62 60/68/67
f 61/69/69 69/76/79 60/68/67
f 71/77/80 61/69/69 62/71/74
f 72/78/81 62/71/74 63/64/59
f 73/79/82 63/64/59 64/66/65
f 57/74/77 65/80/83 56/70/72
f 70/81/84 78/82/85 69/76/79
f 71/77/80 79/83/86 70/81/84
f 81/84/87 71/77/80 72/78/81
f 82/85/88 72/78/81 73/79/82
f 66/73/76 74/86/89 65/80/83
f 76/87/90 66/73/76 67/75/78
f 68/88/91 76/87/90 67/75/78
f 69/76/79 77/89/92 68/88/91
f 75/90/93 92/91/94 74/86/89
f 76/87/90 92/91/94 75/90/93
f 77/89/92 92/91/94 76/87/90
f 78/82/85 92/91/94 77/89/92
f 79/83/86 92/91/94 78/82/85
f 80/92/95 92/91/94 79/83/86
f 81/84/87 92/91/94 80/92/95
f 82/85/88 92/91/94 81/84/87
f 9/21/96 64/93/97 55/94/98
f 1/1/99 56/95/100 10/35/101
f 18/20/102 73/96/103 64/93/97
f 10/35/101 65/97/104 19/40/105
f 27/34/106 82/98/107 73/96/103
f 19/40/105 74/99/108 28/45/109
f 37/3/110 47/100/111 1/1/99
f 45/17/112 55/94/98 91/101/112
f 45/17/113 90/102/113 44/15/113
f 44/15/113 89/103/113 43/13/113
f 43/13/113 88/104/113 42/11/113
f 42/11/113 87/105/113 41/9/113
f 41/9/113 86/106/113 40/7/113
f 40/7/113 85/107/113 39/5/113
f 38/2/113 85/107/113 84/108/113
f 37/3/113 84/108/113 83/109/113
f 46/46/114 74/99/108 92/110/115
f 46/46/116 82/98/107 36/39/117
f 1/1/1 2/4/2 38/2/2
f 2/4/2 3/6/3 39/5/3
f 3/6/3 4/8/4 40/7/4
f 4/8/4 5/10/5 41/9/5
f 5/10/5 6/12/6 42/11/6
f 6/12/6 7/14/7 43/13/7
f 7/14/7 8/16/8 44/15/8
f 8/16/8 9/21/9 45/17/9
f 7/14/10 16/25/25 17/18/11
f 3/6/13 12/26/26 13/19/14
f 8/16/12 17/18/11 18/20/16
f 4/8/15 13/19/14 14/22/18
f 6/12/20 5/10/19 14/22/18
f 1/1/22 10/35/35 11/24/23
f 6/12/20 15/23/21 16/25/25
f 2/4/24 11/24/23 12/26/26
f 12/26/26 11/24/23 20/27/27
f 13/19/14 12/26/26 21/28/28
f 14/22/18 13/19/14 22/29/29
f 15/23/21 14/22/18 23/30/30
f 15/23/21 24/31/31 25/32/32
f 16/25/25 25/32/32 26/33/33
f 18/20/16 17/18/11 26/33/33
f 10/35/35 19/40/40 20/27/27
f 23/30/30 32/44/44 33/36/36
f 24/31/31 33/36/36 34/37/37
f 25/32/32 34/37/37 35/38/38
f 26/33/33 35/38/38 36/39/39
f 19/40/40 28/45/45 29/41/41
f 21/28/28 20/27/27 29/41/41
f 22/29/29 21/28/28 30/42/42
f 22/29/29 31/43/43 32/44/44
f 83/47/47 84/51/51 48/48/48
f 85/50/50 49/53/50 48/48/48
f 85/50/50 86/55/52 50/52/52
f 87/54/53 51/57/53 50/52/52
f 88/56/54 52/59/54 51/57/53
f 89/58/55 53/61/55 52/59/54
f 90/60/56 54/63/58 53/61/55
f 91/62/57 55/67/118 54/63/58
f 63/64/59 62/71/74 53/61/60
f 59/65/62 58/72/75 49/53/63
f 64/66/65 63/64/59 54/63/61
f 60/68/67 59/65/62 50/52/64
f 61/69/69 60/68/67 51/57/68
f 48/48/71 57/74/77 56/70/72
f 62/71/74 61/69/69 52/59/70
f 58/72/75 57/74/77 48/48/71
f 58/72/75 67/75/78 66/73/76
f 59/65/62 68/88/91 67/75/78
f 69/76/79 68/88/91 59/65/62
f 61/69/69 70/81/84 69/76/79
f 71/77/80 70/81/84 61/69/69
f 72/78/81 71/77/80 62/71/74
f 73/79/82 72/78/81 63/64/59
f 57/74/77 66/73/76 65/80/83
f 70/81/84 79/83/86 78/82/85
f 71/77/80 80/92/95 79/83/86
f 81/84/87 80/92/95 71/77/80
f 82/85/88 81/84/87 72/78/81
f 66/73/76 75/90/93 74/86/89
f 76/87/90 75/90/93 66/73/76
f 68/88/91 77/89/92 76/87/90
f 69/76/79 78/82/85 77/89/92
f 9/21/96 18/20/102 64/93/97
f 1/1/99 47/100/111 56/95/100
f 18/20/102 27/34/106 73/96/103
f 10/35/101 56/95/100 65/97/104
f 27/34/106 36/39/117 82/98/107
f 19/40/105 65/97/104 74/99/108
f 37/3/110 83/111/110 47/100/111
f 45/17/112 9/21/96 55/94/98
f 45/17/113 91/112/113 90/102/113
f 44/15/113 90/102/113 89/103/113
f 43/13/113 89/103/113 88/104/113
f 42/11/113 88/104/113 87/105/113
f 41/9/113 87/105/113 86/106/113
f 40/7/113 86/106/113 85/107/113
f 38/2/113 39/5/113 85/107/113
f 37/3/113 38/2/113 84/108/113
f 46/46/114 28/45/109 74/99/108
f 46/46/116 92/113/119 82/98/107
