# Blender 4.1.0
# www.blender.org
mtllib Silo_Window.mtl
o Silo_Window
v 14.548670 33.734341 -14.494591
v 17.097101 33.734341 -11.389319
v 18.990757 33.734341 -7.846541
v 20.156862 33.734341 -4.002402
v 20.550610 33.734344 -0.004630
v 20.156862 33.734344 3.993141
v 18.990757 33.734344 7.837280
v 17.097101 33.734344 11.380059
v 14.548672 33.734344 14.485331
v 14.548670 46.357506 -14.494594
v 17.097101 46.357506 -11.389322
v 18.990757 46.357506 -7.846544
v 20.156862 46.357510 -4.002405
v 20.156862 46.357510 3.993138
v 18.990757 46.357513 7.837277
v 17.097101 46.357513 11.380056
v 14.548672 46.357513 14.485328
v 9.174458 33.767151 -7.127142
v 10.587937 33.767151 -4.900129
v 11.458355 33.767155 -2.483678
v 11.752261 33.767155 0.029346
v 11.458355 33.767155 2.542371
v 10.587937 33.767155 4.958822
v 9.174458 33.767155 7.185834
v 9.174458 32.994442 -7.127141
v 11.458355 32.994446 -2.483678
v 11.752261 32.994446 0.029346
v 11.458355 32.994446 2.542371
v 9.174458 32.994446 7.185835
v 10.587937 32.994446 -4.900128
v 10.587937 32.994446 4.958822
v 14.548670 32.838757 -14.494591
v 17.097101 32.838757 -11.389319
v 18.990757 32.838757 -7.846541
v 20.156862 32.838760 -4.002401
v 20.550610 32.838760 -0.004630
v 20.156862 32.838760 3.993141
v 18.990757 32.838760 7.837281
v 17.097101 32.838760 11.380059
v 14.548672 32.838760 14.485331
v 14.548670 20.382624 -14.494588
v 17.097101 20.382624 -11.389317
v 18.990757 20.382626 -7.846538
v 20.156862 20.382626 -4.002398
v 20.550610 20.382627 -0.004627
v 20.156862 20.382627 3.993144
v 18.990757 20.382629 7.837284
v 17.097101 20.382629 11.380062
v 14.548672 20.382629 14.485333
v 16.000374 33.748283 10.660564
v 17.776962 33.750938 7.334511
v 18.868305 33.750938 3.736831
v 19.236809 33.750935 -0.004630
v 18.868305 33.750935 -3.746091
v 17.776962 33.750931 -7.343772
v 16.000374 33.748280 -10.669824
v 16.000374 46.316437 10.660562
v 17.771744 32.873299 -7.358117
v 15.996033 32.873306 10.670978
v 18.865219 32.873302 3.744145
v 19.234444 32.873302 -0.004634
v 13.592984 33.739578 13.609347
v 15.996033 32.873299 -10.680237
v 13.592982 20.382624 -13.618605
v 15.987350 20.382624 -10.701061
v 17.766525 20.382626 -7.372459
v 18.862135 20.382626 -3.760715
v 19.232079 20.382627 -0.004627
v 18.862135 20.382627 3.751461
v 17.766525 20.382629 7.363205
v 15.987350 20.382629 10.691807
v 13.592984 20.382629 13.609350
v 13.592982 32.867241 -13.618608
v 18.868305 46.319088 3.736828
v 18.865219 32.873302 -3.753405
v 13.592982 33.739571 -13.618608
v 17.771744 32.873302 7.348857
v 17.776962 46.319092 7.334508
v 13.592984 32.867249 13.609347
v 18.868305 46.319088 -3.746095
v 17.776962 46.319084 -7.343774
v 16.000374 46.316433 -10.669827
v 13.592984 46.307732 13.609344
v 13.592982 46.307724 -13.618610
vn 0.8315 -0.0000 0.5556
vn 0.7730 -0.0000 0.6344
vn 0.9239 -0.0000 0.3827
vn 0.9739 -0.0000 0.2272
vn 0.9808 -0.0000 0.1951
vn 1.0000 -0.0000 -0.0000
vn 0.9739 -0.0000 -0.2272
vn 0.9808 -0.0000 -0.1951
vn 0.9239 -0.0000 -0.3827
vn 0.8315 -0.0000 -0.5556
vn 0.7730 -0.0000 -0.6344
vn 0.9569 -0.0000 0.2903
vn 0.9569 -0.0000 -0.2903
vn 0.0020 1.0000 0.0011
vn 0.0018 1.0000 0.0016
vn 0.0019 1.0000 0.0012
vn 0.0021 1.0000 0.0005
vn 0.0059 1.0000 0.0007
vn 0.0022 1.0000 -0.0000
vn 0.0059 1.0000 -0.0007
vn 0.0077 1.0000 -0.0000
vn -1.0000 -0.0000 -0.0000
vn -0.9734 -0.0000 -0.2290
vn 0.0019 1.0000 -0.0012
vn 0.0021 1.0000 -0.0005
vn 0.0018 1.0000 -0.0016
vn 0.0020 1.0000 -0.0011
vn -0.9734 -0.0000 0.2290
vn -0.8980 -0.0000 0.4400
vn -0.8443 -0.0000 0.5359
vn -0.8980 -0.0000 -0.4400
vn -0.8443 -0.0000 -0.5359
vn -0.0141 -0.9999 -0.0078
vn -0.0143 -0.9999 -0.0070
vn -0.0149 -0.9999 -0.0062
vn -0.0144 -0.9999 -0.0036
vn -0.0157 -0.9999 -0.0029
vn -0.0161 -0.9999 -0.0000
vn -0.0162 -0.9999 -0.0000
vn 0.0236 -0.9992 0.0324
vn -0.0156 -0.9999 0.0036
vn -0.0149 -0.9999 0.0062
vn -0.0142 -0.9999 0.0069
vn -0.0141 -0.9999 0.0078
vn -0.8139 -0.0012 0.5810
vn -0.7746 -0.0000 0.6324
vn -0.7744 -0.0003 0.6327
vn -0.0281 0.9996 0.0085
vn -0.0272 0.9996 0.0112
vn -0.4617 0.0120 -0.8870
vn -0.4607 0.0009 -0.8875
vn -0.4607 -0.0000 -0.8876
vn -0.4537 0.0009 0.8911
vn -0.4547 0.0120 0.8906
vn -0.4537 -0.0000 0.8912
vn -0.9239 -0.0000 -0.3825
vn -0.9569 -0.0000 -0.2903
vn -0.9239 -0.0000 -0.3826
vn -0.8135 -0.0013 -0.5815
vn -0.7744 -0.0003 -0.6327
vn -0.8139 -0.0012 -0.5810
vn -0.8135 -0.0013 0.5815
vn -0.7740 -0.0002 0.6332
vn -0.8323 -0.0000 -0.5543
vn -0.9239 -0.0000 0.3826
vn -0.8323 -0.0000 0.5543
vn -0.7746 -0.0000 -0.6324
vn 0.1951 -0.0000 -0.9808
vn 0.1951 -0.0000 0.9808
vn 0.0126 0.9999 -0.0012
vn 0.0126 0.9999 -0.0000
vn 0.0126 0.9999 0.0012
vn -0.0260 0.9995 -0.0170
vn -0.0272 0.9996 -0.0112
vn -0.0269 0.9995 -0.0174
vn -0.0260 0.9995 0.0170
vn -0.0270 0.9996 0.0112
vn -0.0000 -1.0000 -0.0000
vn -0.9808 0.0001 -0.1951
vn -0.9239 -0.0001 -0.3826
vn -0.8315 -0.0001 -0.5555
vn -0.7740 -0.0002 -0.6332
vn -0.8315 -0.0001 0.5555
vn -0.7730 -0.0000 0.6344
vn -0.9764 0.0948 0.1943
vn -0.9239 -0.0001 0.3826
vn -0.9239 -0.0001 0.3828
vn -1.0000 0.0002 -0.0000
vn -0.9239 -0.0001 -0.3828
vn -0.9862 0.0336 0.1620
vn -0.0281 0.9996 -0.0085
vn -0.0270 0.9996 -0.0112
vn -0.9569 -0.0000 0.2903
vn -0.0298 0.9993 0.0221
vn -0.0269 0.9995 0.0174
vn -0.0298 0.9993 -0.0221
vn -0.0313 0.9993 -0.0226
vn -0.6757 -0.0000 -0.7372
vn -0.6757 -0.0000 0.7372
vn 0.0021 1.0000 0.0013
vn 0.0021 1.0000 -0.0013
vn -0.0134 -0.9999 -0.0085
vn -0.0133 -0.9999 0.0085
vn -0.4617 0.0128 -0.8869
vn -0.4547 0.0129 0.8905
vn -0.9239 -0.0000 0.3825
vn -0.7730 -0.0000 -0.6344
vn -0.0313 0.9993 0.0226
vt 0.184594 0.608095
vt 0.171213 0.655567
vt 0.173866 0.607523
vt 0.187163 0.559762
vt 0.176394 0.559214
vt 0.189607 0.511245
vt 0.178705 0.510849
vt 0.190825 0.461909
vt 0.179834 0.461779
vt 0.190814 0.412373
vt 0.179799 0.412524
vt 0.189353 0.363010
vt 0.178382 0.363392
vt 0.187393 0.313619
vt 0.176434 0.314103
vt 0.185217 0.264505
vt 0.174286 0.264973
vt 0.331952 0.616086
vt 0.181904 0.656176
vt 0.334541 0.569899
vt 0.338598 0.308090
vt 0.339653 0.259511
vt 0.340777 0.522064
vt 0.346414 0.404722
vt 0.340806 0.355702
vt 0.174361 0.048877
vt 0.246453 0.013047
vt 0.252163 0.046268
vt 0.173212 0.079084
vt 0.254747 0.079501
vt 0.172023 0.109794
vt 0.251884 0.147810
vt 0.255656 0.113747
vt 0.164097 0.078709
vt 0.246440 0.180820
vt 0.170716 0.140412
vt 0.237776 0.213530
vt 0.168991 0.170527
vt 0.162871 0.109330
vt 0.160350 0.170198
vt 0.159562 0.198174
vt 0.167009 0.198589
vt 0.165718 0.048579
vt 0.175053 0.020900
vt 0.029095 0.321140
vt 0.023158 0.274153
vt 0.032023 0.367188
vt 0.033355 0.413438
vt 0.033799 0.460210
vt 0.033233 0.506860
vt 0.031883 0.552765
vt 0.029050 0.598423
vt 0.023086 0.645221
vt 0.096859 0.006357
vt 0.088305 0.039100
vt 0.082944 0.072199
vt 0.079993 0.106071
vt 0.079993 0.140067
vt 0.161605 0.140008
vt 0.082430 0.173358
vt 0.088019 0.206528
vt 0.838104 0.680262
vt 0.691580 0.635857
vt 0.838204 0.635852
vt 0.357064 0.354342
vt 0.362534 0.401214
vt 0.089106 0.214649
vt 0.160514 0.205346
vt 0.167603 0.020508
vt 0.098611 -0.001695
vt 0.169143 0.013396
vt 0.691451 0.899689
vt 0.838076 0.855833
vt 0.838075 0.899693
vt 0.848312 0.943811
vt 0.838204 0.988094
vt 0.838104 0.943685
vt 0.848312 0.680135
vt 0.848381 0.635851
vt 0.691480 0.943680
vt 0.838075 0.724253
vt 0.691480 0.680266
vt 0.691580 0.988090
vt 0.341443 0.506297
vt 0.346736 0.420940
vt 0.263497 0.150289
vt 0.267632 0.114248
vt 0.266522 0.078002
vt 0.350213 0.571506
vt 0.347249 0.616586
vt 0.017498 0.413476
vt 0.016406 0.367487
vt 0.017470 0.460194
vt 0.016385 0.552477
vt 0.013770 0.322049
vt 0.017449 0.506807
vt 0.013819 0.597522
vt 0.007831 0.277035
vt 0.994029 0.856005
vt 0.848311 0.899865
vt 0.848309 0.855919
vt 0.994032 0.944068
vt 0.848381 0.988095
vt 0.994032 0.679878
vt 0.994031 0.635846
vt 0.994029 0.767941
vt 0.848311 0.724081
vt 0.994031 0.723910
vt 0.994028 0.811973
vt 0.848308 0.811973
vt 0.994031 0.900037
vt 0.848309 0.768027
vt 0.691452 0.768118
vt 0.838076 0.768113
vt 0.354444 0.307705
vt 0.332628 0.662895
vt 0.347986 0.661765
vt 0.022193 0.258405
vt 0.173881 0.249139
vt 0.338529 0.243655
vt 0.184593 0.248662
vt 0.331343 0.678363
vt 0.170633 0.671066
vt 0.181106 0.671662
vt 0.022002 0.660653
vt 0.691452 0.855828
vt 0.691451 0.724258
vt 0.190932 0.495525
vt 0.191815 0.428557
vt 0.007831 0.642326
vt 0.994031 0.988100
vt 0.356804 0.525864
vt 0.355587 0.260812
s 1
usemtl Silo
f 8/1/1 40/2/2 39/3/1
f 7/4/3 39/3/1 38/5/3
f 6/6/4 38/5/3 37/7/5
f 5/8/6 37/7/5 36/9/6
f 4/10/7 36/9/6 35/11/8
f 3/12/9 35/11/8 34/13/9
f 2/14/10 34/13/9 33/15/10
f 1/16/11 33/15/10 32/17/11
f 16/18/1 9/19/2 8/1/1
f 15/20/3 8/1/1 7/4/3
f 11/21/10 3/12/9 2/14/10
f 10/22/11 2/14/10 1/16/11
f 7/4/3 14/23/12 15/20/3
f 13/24/13 3/12/9 12/25/9
f 23/26/14 50/27/15 51/28/16
f 22/29/17 51/28/16 52/30/18
f 52/30/18 21/31/19 22/29/17
f 54/32/20 21/31/19 53/33/21
f 21/31/22 28/34/23 22/29/23
f 55/35/24 20/36/25 54/32/20
f 56/37/26 19/38/27 55/35/24
f 20/36/28 27/39/22 21/31/22
f 30/40/29 20/36/28 19/38/29
f 25/41/30 19/38/29 18/42/30
f 31/43/31 24/44/32 23/26/31
f 28/34/23 23/26/31 22/29/23
f 32/17/11 42/45/10 41/46/11
f 33/15/10 43/47/9 42/45/10
f 34/13/9 44/48/8 43/47/9
f 35/11/8 45/49/6 44/48/8
f 36/9/6 46/50/5 45/49/6
f 37/7/5 47/51/3 46/50/5
f 38/5/3 48/52/1 47/51/3
f 39/3/1 49/53/2 48/52/1
f 59/54/33 31/43/34 77/55/35
f 77/55/35 28/34/36 60/56/37
f 60/56/37 27/39/38 61/57/39
f 27/39/38 75/58/40 61/57/39
f 26/59/41 58/60/42 75/58/40
f 30/40/43 63/61/44 58/60/42
f 56/62/45 84/63/46 76/64/47
f 13/24/48 81/65/49 80/66/48
f 56/67/50 25/41/51 18/68/52
f 29/69/53 50/70/54 24/71/55
f 78/72/56 52/73/57 51/74/58
f 59/75/59 62/76/60 50/77/61
f 63/78/62 76/64/47 73/79/63
f 57/80/64 51/74/58 50/77/61
f 55/81/65 82/82/66 56/62/45
f 50/77/61 83/83/67 57/80/64
f 6/6/68 74/84/68 14/23/68
f 80/85/69 4/10/69 13/24/69
f 4/86/70 53/33/21 5/87/71
f 6/88/72 53/33/21 52/30/18
f 16/18/73 78/89/74 57/90/75
f 11/21/76 81/65/49 12/25/77
f 43/47/78 67/91/78 66/92/78
f 46/50/78 68/93/78 45/49/78
f 48/52/78 70/94/78 47/51/78
f 42/45/78 66/92/78 65/95/78
f 44/48/78 68/93/78 67/91/78
f 47/51/78 69/96/78 46/50/78
f 49/53/78 71/97/78 48/52/78
f 41/46/78 65/95/78 64/98/78
f 69/99/79 77/100/80 60/101/79
f 71/102/81 79/103/82 59/75/59
f 65/104/83 73/79/63 64/105/84
f 67/106/85 58/107/86 66/108/87
f 68/109/88 60/101/79 61/110/88
f 70/111/89 59/75/59 77/100/80
f 66/108/87 63/78/62 65/104/83
f 68/109/88 75/112/90 67/106/85
f 14/23/91 78/89/74 15/20/92
f 80/113/93 55/81/65 54/114/93
f 10/22/94 82/115/95 11/21/76
f 17/116/96 57/90/75 83/117/97
f 64/118/98 32/17/98 41/46/98
f 73/119/98 1/16/98 32/17/98
f 84/120/98 1/16/98 76/121/98
f 83/122/99 9/19/99 17/116/99
f 79/123/99 9/19/99 62/124/99
f 72/125/99 40/2/99 79/123/99
f 8/1/1 9/19/2 40/2/2
f 7/4/3 8/1/1 39/3/1
f 6/6/4 7/4/3 38/5/3
f 5/8/6 6/6/4 37/7/5
f 4/10/7 5/8/6 36/9/6
f 3/12/9 4/10/7 35/11/8
f 2/14/10 3/12/9 34/13/9
f 1/16/11 2/14/10 33/15/10
f 16/18/1 17/116/2 9/19/2
f 15/20/3 16/18/1 8/1/1
f 11/21/10 12/25/9 3/12/9
f 10/22/11 11/21/10 2/14/10
f 7/4/3 6/6/4 14/23/12
f 13/24/13 4/10/7 3/12/9
f 23/26/14 24/44/100 50/27/15
f 22/29/17 23/26/14 51/28/16
f 52/30/18 53/33/21 21/31/19
f 54/32/20 20/36/25 21/31/19
f 21/31/22 27/39/22 28/34/23
f 55/35/24 19/38/27 20/36/25
f 56/37/26 18/42/101 19/38/27
f 20/36/28 26/59/28 27/39/22
f 30/40/29 26/59/28 20/36/28
f 25/41/30 30/40/29 19/38/29
f 31/43/31 29/69/32 24/44/32
f 28/34/23 31/43/31 23/26/31
f 32/17/11 33/15/10 42/45/10
f 33/15/10 34/13/9 43/47/9
f 34/13/9 35/11/8 44/48/8
f 35/11/8 36/9/6 45/49/6
f 36/9/6 37/7/5 46/50/5
f 37/7/5 38/5/3 47/51/3
f 38/5/3 39/3/1 48/52/1
f 39/3/1 40/2/2 49/53/2
f 59/54/33 29/69/102 31/43/34
f 77/55/35 31/43/34 28/34/36
f 60/56/37 28/34/36 27/39/38
f 27/39/38 26/59/41 75/58/40
f 26/59/41 30/40/43 58/60/42
f 30/40/43 25/41/103 63/61/44
f 56/62/45 82/82/66 84/63/46
f 13/24/48 12/25/77 81/65/49
f 56/67/50 63/61/104 25/41/51
f 29/69/53 59/54/105 50/70/54
f 78/72/56 74/126/57 52/73/57
f 59/75/59 79/103/82 62/76/60
f 63/78/62 56/62/45 76/64/47
f 57/80/64 78/72/56 51/74/58
f 55/81/65 81/127/106 82/82/66
f 50/77/61 62/76/60 83/83/67
f 6/6/68 52/128/68 74/84/68
f 80/85/69 54/129/69 4/10/69
f 4/86/70 54/32/20 53/33/21
f 6/88/72 5/87/71 53/33/21
f 16/18/73 15/20/92 78/89/74
f 11/21/76 82/115/95 81/65/49
f 43/47/78 44/48/78 67/91/78
f 46/50/78 69/96/78 68/93/78
f 48/52/78 71/97/78 70/94/78
f 42/45/78 43/47/78 66/92/78
f 44/48/78 45/49/78 68/93/78
f 47/51/78 70/94/78 69/96/78
f 49/53/78 72/130/78 71/97/78
f 41/46/78 42/45/78 65/95/78
f 69/99/79 70/111/89 77/100/80
f 71/102/81 72/131/107 79/103/82
f 65/104/83 63/78/62 73/79/63
f 67/106/85 75/112/90 58/107/86
f 68/109/88 69/99/79 60/101/79
f 70/111/89 71/102/81 59/75/59
f 66/108/87 58/107/86 63/78/62
f 68/109/88 61/110/88 75/112/90
f 14/23/91 74/132/91 78/89/74
f 80/113/93 81/127/106 55/81/65
f 10/22/94 84/133/108 82/115/95
f 17/116/96 16/18/73 57/90/75
f 64/118/98 73/119/98 32/17/98
f 73/119/98 76/121/98 1/16/98
f 84/120/98 10/22/98 1/16/98
f 83/122/99 62/124/99 9/19/99
f 79/123/99 40/2/99 9/19/99
f 72/125/99 49/53/99 40/2/99
